<svg width="234" height="25" viewBox="0 0 234 25" fill="none" xmlns="http://www.w3.org/2000/svg">
<path id="arrow" d="M55 3L63.5 13.5L55 22M73.5 3L82 13.5L73.5 22M90.5 3L99 13.5L90.5 22M106.5 3L115 13.5L106.5 22M122.5 3L131 13.5L122.5 22M138.5 3L147 13.5L138.5 22M155.5 3L164 13.5L155.5 22M172.5 3L181 13.5L172.5 22M189.5 3L198 13.5L189.5 22M206 3L214.5 13.5L206 22M222 3L230.5 13.5L222 22M37.5 3L46 13.5L37.5 22M19.5 3L28 13.5L19.5 22M3 3L11.5 13.5L3 22" stroke="#E5E5E5" stroke-opacity="0.17" stroke-width="5" stroke-linecap="round"/>
</svg>
