<svg width="317" height="25" viewBox="0 0 317 25" fill="none" xmlns="http://www.w3.org/2000/svg">
<path d="M3 3L11.5 13.5L3 22M20 3L28.5 13.5L20 22M37 3L45.5 13.5L37 22M53.5 3L62 13.5L53.5 22M69.5 3L78 13.5L69.5 22" stroke="#E5E5E5" stroke-opacity="0.17" stroke-width="5" stroke-linecap="round"/>
<path d="M137.5 3L146 13.5L137.5 22M156 3L164.5 13.5L156 22M173 3L181.5 13.5L173 22M189 3L197.5 13.5L189 22M205 3L213.5 13.5L205 22M221 3L229.5 13.5L221 22M238 3L246.5 13.5L238 22M255 3L263.5 13.5L255 22M272 3L280.5 13.5L272 22M288.5 3L297 13.5L288.5 22M304.5 3L313 13.5L304.5 22M120 3L128.5 13.5L120 22M102 3L110.5 13.5L102 22M85.5 3L94 13.5L85.5 22" stroke="#E5E5E5" stroke-opacity="0.17" stroke-width="5" stroke-linecap="round"/>
</svg>
