<svg width="72" height="72" viewBox="0 0 72 72" fill="none" xmlns="http://www.w3.org/2000/svg">
<g id="carbon:development">
<path id="Vector" d="M18 9V18H9V9H18ZM4.5 4.5V22.5H22.5V4.5H4.5ZM40.5 15.75V24.75H31.5V15.75H40.5ZM27 11.25V29.25H45V11.25H27ZM18 36V45H9V36H18ZM4.5 31.5V49.5H22.5V31.5H4.5Z" fill="#FCA311"/>
<path id="Vector_2" d="M49.5 22.5V36H36V49.5H22.5V67.5H67.5V22.5H49.5ZM40.5 40.5H49.5V49.5H40.5V40.5ZM36 63H27V54H36V63ZM49.5 63H40.5V54H49.5V63ZM63 63H54V54H63V63ZM63 49.5H54V40.5H63V49.5ZM54 36V27H63V36H54Z" fill="#FCA311"/>
</g>
</svg>
