<svg width="173" height="25" viewBox="0 0 173 25" fill="none" xmlns="http://www.w3.org/2000/svg">
<g id="css star">
<path id="Star 11" d="M11.5489 2.92705C11.8483 2.00574 13.1517 2.00574 13.4511 2.92705L15.0819 7.9463C15.2158 8.35833 15.5997 8.63729 16.033 8.63729H21.3105C22.2792 8.63729 22.682 9.8769 21.8983 10.4463L17.6287 13.5484C17.2782 13.803 17.1315 14.2544 17.2654 14.6664L18.8963 19.6857C19.1956 20.607 18.1411 21.3731 17.3574 20.8037L13.0878 17.7016C12.7373 17.447 12.2627 17.447 11.9122 17.7016L7.64258 20.8037C6.85887 21.3731 5.80439 20.607 6.10374 19.6857L7.7346 14.6664C7.86847 14.2544 7.72181 13.803 7.37132 13.5484L3.10169 10.4463C2.31798 9.8769 2.72075 8.63729 3.68948 8.63729H8.96703C9.40026 8.63729 9.78421 8.35833 9.91809 7.9463L11.5489 2.92705Z" fill="#FCA311"/>
<path id="Star 12" d="M48.5489 2.92705C48.8483 2.00574 50.1517 2.00574 50.4511 2.92705L52.0819 7.9463C52.2158 8.35833 52.5997 8.63729 53.033 8.63729H58.3105C59.2792 8.63729 59.682 9.8769 58.8983 10.4463L54.6287 13.5484C54.2782 13.803 54.1315 14.2544 54.2654 14.6664L55.8963 19.6857C56.1956 20.607 55.1411 21.3731 54.3574 20.8037L50.0878 17.7016C49.7373 17.447 49.2627 17.447 48.9122 17.7016L44.6426 20.8037C43.8589 21.3731 42.8044 20.607 43.1037 19.6857L44.7346 14.6664C44.8685 14.2544 44.7218 13.803 44.3713 13.5484L40.1017 10.4463C39.318 9.8769 39.7208 8.63729 40.6895 8.63729H45.967C46.4003 8.63729 46.7842 8.35833 46.9181 7.9463L48.5489 2.92705Z" fill="#FCA311"/>
<path id="Star 13" d="M85.5489 2.92705C85.8483 2.00574 87.1517 2.00574 87.4511 2.92705L89.0819 7.9463C89.2158 8.35833 89.5997 8.63729 90.033 8.63729H95.3105C96.2792 8.63729 96.682 9.8769 95.8983 10.4463L91.6287 13.5484C91.2782 13.803 91.1315 14.2544 91.2654 14.6664L92.8963 19.6857C93.1956 20.607 92.1411 21.3731 91.3574 20.8037L87.0878 17.7016C86.7373 17.447 86.2627 17.447 85.9122 17.7016L81.6426 20.8037C80.8589 21.3731 79.8044 20.607 80.1037 19.6857L81.7346 14.6664C81.8685 14.2544 81.7218 13.803 81.3713 13.5484L77.1017 10.4463C76.318 9.8769 76.7208 8.63729 77.6895 8.63729H82.967C83.4003 8.63729 83.7842 8.35833 83.9181 7.9463L85.5489 2.92705Z" fill="#FCA311"/>
<path id="Star 14" d="M122.549 2.92705C122.848 2.00574 124.152 2.00574 124.451 2.92705L126.082 7.9463C126.216 8.35833 126.6 8.63729 127.033 8.63729H132.311C133.279 8.63729 133.682 9.8769 132.898 10.4463L128.629 13.5484C128.278 13.803 128.132 14.2544 128.265 14.6664L129.896 19.6857C130.196 20.607 129.141 21.3731 128.357 20.8037L124.088 17.7016C123.737 17.447 123.263 17.447 122.912 17.7016L118.643 20.8037C117.859 21.3731 116.804 20.607 117.104 19.6857L118.735 14.6664C118.868 14.2544 118.722 13.803 118.371 13.5484L114.102 10.4463C113.318 9.8769 113.721 8.63729 114.689 8.63729H119.967C120.4 8.63729 120.784 8.35833 120.918 7.9463L122.549 2.92705Z" fill="#FCA311"/>
<path id="Star 15" d="M159.549 2.92705C159.848 2.00574 161.152 2.00574 161.451 2.92705L163.082 7.9463C163.216 8.35833 163.6 8.63729 164.033 8.63729H169.311C170.279 8.63729 170.682 9.8769 169.898 10.4463L165.629 13.5484C165.278 13.803 165.132 14.2544 165.265 14.6664L166.896 19.6857C167.196 20.607 166.141 21.3731 165.357 20.8037L161.088 17.7016C160.737 17.447 160.263 17.447 159.912 17.7016L155.643 20.8037C154.859 21.3731 153.804 20.607 154.104 19.6857L155.735 14.6664C155.868 14.2544 155.722 13.803 155.371 13.5484L151.102 10.4463C150.318 9.8769 150.721 8.63729 151.689 8.63729H156.967C157.4 8.63729 157.784 8.35833 157.918 7.9463L159.549 2.92705Z" fill="#FCA311"/>
</g>
</svg>
