<svg width="50" height="50" viewBox="0 0 50 50" fill="none" xmlns="http://www.w3.org/2000/svg">
<g id="dashicons:html">
<path id="Vector" d="M10 40V35H5V40H2.5V27.5H5V32.5H10V27.5H12.5V40H10ZM17.5 40V30H14V27.5H23.25V30H20V40H17.5ZM25 40V27.5H27.5L31 36H31.25L35 27.5H37.5V40H35V32.25H34.75L32 38.5H30.5L27.75 32.25H27.5V40H25ZM47.5 40H40V27.5H42.5V37.5H47.5V40ZM23.5 10.5L17.75 16.25L23.5 22L22 25L13.25 16.25L22 7.5L23.5 10.5ZM26.5 22L32.25 16.25L26.5 10.5L28 7.5L36.75 16.25L28 25L26.5 22Z" fill="white"/>
</g>
</svg>
