<svg width="50" height="50" viewBox="0 0 50 50" fill="none" xmlns="http://www.w3.org/2000/svg">
<g id="el:css" clip-path="url(#clip0_7_112)">
<path id="Vector" d="M0 0.982666V39.6118L25 49.0173L50 39.6118V0.982666H0ZM11.972 16.3177C15.54 16.3734 18.0223 18.1674 18.045 21.7377H14.1754C14.178 20.7848 13.7688 19.8777 12.912 19.516C11.9454 19.1702 10.7374 19.3415 10.1166 20.1599C9.45179 21.1537 9.57033 22.2661 9.57033 23.4375C9.53371 24.9984 10.3327 26.3477 11.9171 26.358C13.5225 26.2773 14.2853 25.494 14.3005 24.0479H18.045C17.9552 27.8825 15.3613 29.3699 11.972 29.3854C7.6915 29.4114 5.46075 26.3968 5.42604 22.8485C5.40083 18.5694 8.42608 16.3526 11.972 16.3177ZM25.5127 16.3177C28.0826 16.2906 31.0214 17.4091 31.0944 20.2148V20.4285H27.2949V20.3582C27.2715 19.4369 26.435 19.0801 25.6653 19.0765C25.1074 19.0908 24.0063 19.2107 23.9899 19.9005C24.1303 20.9906 26.8381 21.1893 27.6795 21.3958C29.6338 21.811 31.386 22.9192 31.4423 24.9786C31.3789 28.3125 28.6736 29.3745 25.882 29.3853C22.5653 29.3616 19.672 28.5644 19.6473 24.8901H23.4803C23.4445 26.2043 24.4703 26.4807 25.5127 26.4831C26.1373 26.483 27.2857 26.4605 27.2949 25.6408C27.1687 24.6304 24.3691 24.368 23.5687 24.1637C21.5015 23.6455 19.8662 22.5691 19.8517 20.3582C19.9946 17.1414 22.882 16.3277 25.5127 16.3177ZM38.7695 16.3177C41.5236 16.3409 44.3482 17.3828 44.3482 20.4285H40.5518C40.5856 19.47 39.7029 19.0802 38.9222 19.0765C38.3643 19.0908 37.2632 19.2108 37.2467 19.9005C37.3661 20.9768 40.1053 21.1918 40.9363 21.3959C42.2975 21.7245 43.6872 22.2757 44.3482 23.5016C44.5691 23.9016 44.6841 24.3935 44.6961 24.9786C44.6351 28.3135 41.9285 29.3746 39.1358 29.3854C35.8211 29.3625 32.9263 28.5624 32.9011 24.8901H36.7341C36.7134 25.7295 37.1618 26.2959 37.9273 26.4282C38.6201 26.4933 40.539 26.7244 40.5518 25.6409C40.401 24.6143 37.6395 24.3715 36.8256 24.1638C34.7563 23.6453 33.1231 22.5713 33.1086 20.3583C33.252 17.1392 36.1355 16.3277 38.7695 16.3177Z" fill="white"/>
</g>
<defs>
<clipPath id="clip0_7_112">
<rect width="50" height="50" fill="white"/>
</clipPath>
</defs>
</svg>
