<svg width="50" height="50" viewBox="0 0 50 50" fill="none" xmlns="http://www.w3.org/2000/svg">
<g id="formkit:wordpress">
<path id="Vector" d="M25.1875 3.125C16.5625 3.125 8.46876 8.1875 4.75001 16.25H15.2188V17.4062C12 17.0312 12.2813 18.6875 12.75 20.4375L19.625 37.5625L24.6563 25.7812L22.3438 20.25C21.5 18.7812 21.5 17.125 18.0313 17.2812L18.0938 16.2187H33.4375V17.4375C31.6563 17.5312 29.4688 17 30.625 20.6562L36.8438 36.875L40.25 27.4063C41.375 23.4375 40.3125 19.625 39 15.875C38.2813 13.375 38.5938 11.2812 41.9063 10.4375C36.875 5.34375 30.9688 3.09375 25.25 3.09375L25.1875 3.125ZM46.0625 18.0938L36.125 43.9062C38.875 41.5312 41.6875 40.6875 45.125 34.125C47.4063 28.6875 47.1875 23.625 46.0625 18.0938ZM3.71876 18.5C2.75001 26.125 2.84376 28.3438 5.25001 34.5625C8.37501 40.5313 10.8125 41.7812 14.25 44.125L3.71876 18.5312V18.5ZM25.5938 28.1563L18.2188 45.8438C23.4063 47.3125 28.0313 47.125 32.25 45.5L25.5938 28.1563Z" fill="white"/>
</g>
</svg>
