<svg width="30" height="30" viewBox="0 0 30 30" fill="none" xmlns="http://www.w3.org/2000/svg">
<g id="icomoon-free:linkedin" clip-path="url(#clip0_7_289)">
<path id="Vector" d="M25.5 0H4.5C1.5 0 0 2.8125 0 5V26C0 28 2 30 4.5 30H25.5C28 30 30 28 30 26V5C30 3 28.5 0 25.5 0ZM11.25 24.375H7.5V11.25H11.25V24.375ZM9.375 9.375C8.87772 9.375 8.40081 9.17746 8.04918 8.82582C7.69754 8.47419 7.5 7.99728 7.5 7.5C7.5 7.00272 7.69754 6.52581 8.04918 6.17417C8.40081 5.82254 8.87772 5.625 9.375 5.625C9.87228 5.625 10.3492 5.82254 10.7008 6.17417C11.0525 6.52581 11.25 7.00272 11.25 7.5C11.25 7.99728 11.0525 8.47419 10.7008 8.82582C10.3492 9.17746 9.87228 9.375 9.375 9.375ZM24.375 24.375H20.625V16.875C20.625 16.3777 20.4275 15.9008 20.0758 15.5492C19.7242 15.1975 19.2473 15 18.75 15C18.2527 15 17.7758 15.1975 17.4242 15.5492C17.0725 15.9008 16.875 16.3777 16.875 16.875V24.375H13.125V11.25H16.875V13.5769C17.6475 12.5156 18.8325 11.25 20.1562 11.25C22.4888 11.25 24.375 13.3481 24.375 15.9375V24.375Z" fill="#FCA311"/>
</g>
<defs>
<clipPath id="clip0_7_289">
<rect width="30" height="30" fill="white"/>
</clipPath>
</defs>
</svg>
