<svg width="1171" height="25" viewBox="0 0 1171 25" fill="none" xmlns="http://www.w3.org/2000/svg">
<path fill-rule="evenodd" clip-rule="evenodd" d="M1.42697 1.05689C2.50012 0.18815 4.07434 0.353857 4.94308 1.42701L13.4431 11.927L14.8592 13.6763L13.2677 15.2678L4.76773 23.7678C3.79142 24.7441 2.20851 24.7441 1.2322 23.7678C0.255887 22.7915 0.255887 21.2085 1.2322 20.2322L8.14074 13.3237L1.05685 4.573C0.188111 3.49985 0.353818 1.92563 1.42697 1.05689ZM17.927 1.05689C19.0001 0.18815 20.5743 0.353857 21.4431 1.42701L29.9431 11.927L31.3592 13.6763L29.7677 15.2678L21.2677 23.7678C20.2914 24.7441 18.7085 24.7441 17.7322 23.7678C16.7559 22.7915 16.7559 21.2085 17.7322 20.2322L24.6407 13.3237L17.5569 4.573C16.6881 3.49985 16.8538 1.92563 17.927 1.05689ZM35.927 1.05689C37.0001 0.18815 38.5743 0.353857 39.4431 1.42701L47.9431 11.927L49.3592 13.6763L47.7677 15.2678L39.2677 23.7678C38.2914 24.7441 36.7085 24.7441 35.7322 23.7678C34.7559 22.7915 34.7559 21.2085 35.7322 20.2322L42.6407 13.3237L35.5569 4.573C34.6881 3.49985 34.8538 1.92563 35.927 1.05689ZM53.427 1.05689C54.5001 0.18815 56.0743 0.353857 56.9431 1.42701L65.4431 11.927L66.8592 13.6763L65.2677 15.2678L56.7677 23.7678C55.7914 24.7441 54.2085 24.7441 53.2322 23.7678C52.2559 22.7915 52.2559 21.2085 53.2322 20.2322L60.1407 13.3237L53.0569 4.573C52.1881 3.49985 52.3538 1.92563 53.427 1.05689ZM71.927 1.05689C73.0001 0.18815 74.5743 0.353857 75.4431 1.42701L83.9431 11.927L85.3592 13.6763L83.7677 15.2678L75.2677 23.7678C74.2914 24.7441 72.7085 24.7441 71.7322 23.7678C70.7559 22.7915 70.7559 21.2085 71.7322 20.2322L78.6407 13.3237L71.5568 4.573C70.6881 3.49985 70.8538 1.92563 71.927 1.05689ZM88.927 1.05689C90.0001 0.18815 91.5743 0.353857 92.4431 1.42701L100.943 11.927L102.359 13.6763L100.768 15.2678L92.2677 23.7678C91.2914 24.7441 89.7085 24.7441 88.7322 23.7678C87.7559 22.7915 87.7559 21.2085 88.7322 20.2322L95.6407 13.3237L88.5568 4.573C87.6881 3.49985 87.8538 1.92563 88.927 1.05689ZM104.927 1.05689C106 0.18815 107.574 0.353857 108.443 1.42701L116.943 11.927L118.359 13.6763L116.768 15.2678L108.268 23.7678C107.291 24.7441 105.709 24.7441 104.732 23.7678C103.756 22.7915 103.756 21.2085 104.732 20.2322L111.641 13.3237L104.557 4.573C103.688 3.49985 103.854 1.92563 104.927 1.05689ZM120.927 1.05689C122 0.18815 123.574 0.353857 124.443 1.42701L132.943 11.927L134.359 13.6763L132.768 15.2678L124.268 23.7678C123.291 24.7441 121.709 24.7441 120.732 23.7678C119.756 22.7915 119.756 21.2085 120.732 20.2322L127.641 13.3237L120.557 4.573C119.688 3.49985 119.854 1.92563 120.927 1.05689ZM136.927 1.05689C138 0.18815 139.574 0.353857 140.443 1.42701L148.943 11.927L150.359 13.6763L148.768 15.2678L140.268 23.7678C139.291 24.7441 137.709 24.7441 136.732 23.7678C135.756 22.7915 135.756 21.2085 136.732 20.2322L143.641 13.3237L136.557 4.573C135.688 3.49985 135.854 1.92563 136.927 1.05689ZM153.927 1.05689C155 0.18815 156.574 0.353857 157.443 1.42701L165.943 11.927L167.359 13.6763L165.768 15.2678L157.268 23.7678C156.291 24.7441 154.709 24.7441 153.732 23.7678C152.756 22.7915 152.756 21.2085 153.732 20.2322L160.641 13.3237L153.557 4.573C152.688 3.49985 152.854 1.92563 153.927 1.05689ZM170.927 1.05689C172 0.18815 173.574 0.353857 174.443 1.42701L182.943 11.927L184.359 13.6763L182.768 15.2678L174.268 23.7678C173.291 24.7441 171.709 24.7441 170.732 23.7678C169.756 22.7915 169.756 21.2085 170.732 20.2322L177.641 13.3237L170.557 4.573C169.688 3.49985 169.854 1.92563 170.927 1.05689ZM187.927 1.05689C189 0.18815 190.574 0.353857 191.443 1.42701L199.943 11.927L201.359 13.6763L199.768 15.2678L191.268 23.7678C190.291 24.7441 188.709 24.7441 187.732 23.7678C186.756 22.7915 186.756 21.2085 187.732 20.2322L194.641 13.3237L187.557 4.573C186.688 3.49985 186.854 1.92563 187.927 1.05689ZM204.427 1.05689C205.5 0.18815 207.074 0.353857 207.943 1.42701L216.443 11.927L217.859 13.6763L216.268 15.2678L207.768 23.7678C206.791 24.7441 205.209 24.7441 204.232 23.7678C203.256 22.7915 203.256 21.2085 204.232 20.2322L211.141 13.3237L204.057 4.573C203.188 3.49985 203.354 1.92563 204.427 1.05689ZM220.427 1.05689C221.5 0.18815 223.074 0.353857 223.943 1.42701L232.443 11.927L233.859 13.6763L232.268 15.2678L223.768 23.7678C222.791 24.7441 221.209 24.7441 220.232 23.7678C219.256 22.7915 219.256 21.2085 220.232 20.2322L227.141 13.3237L220.057 4.573C219.188 3.49985 219.354 1.92563 220.427 1.05689ZM235.427 1.05689C236.5 0.18815 238.074 0.353857 238.943 1.42701L247.443 11.927L248.859 13.6763L247.268 15.2678L238.768 23.7678C237.791 24.7441 236.209 24.7441 235.232 23.7678C234.256 22.7915 234.256 21.2085 235.232 20.2322L242.141 13.3237L235.057 4.573C234.188 3.49985 234.354 1.92563 235.427 1.05689ZM251.927 1.05689C253 0.18815 254.574 0.353857 255.443 1.42701L263.943 11.927L265.359 13.6763L263.768 15.2678L255.268 23.7678C254.291 24.7441 252.709 24.7441 251.732 23.7678C250.756 22.7915 250.756 21.2085 251.732 20.2322L258.641 13.3237L251.557 4.573C250.688 3.49985 250.854 1.92563 251.927 1.05689ZM269.927 1.05689C271 0.18815 272.574 0.353857 273.443 1.42701L281.943 11.927L283.359 13.6763L281.768 15.2678L273.268 23.7678C272.291 24.7441 270.708 24.7441 269.732 23.7678C268.756 22.7915 268.756 21.2085 269.732 20.2322L276.641 13.3237L269.557 4.573C268.688 3.49985 268.854 1.92563 269.927 1.05689ZM287.427 1.05689C288.5 0.18815 290.074 0.353857 290.943 1.42701L299.443 11.927L300.859 13.6763L299.268 15.2678L290.768 23.7678C289.791 24.7441 288.208 24.7441 287.232 23.7678C286.256 22.7915 286.256 21.2085 287.232 20.2322L294.141 13.3237L287.057 4.573C286.188 3.49985 286.354 1.92563 287.427 1.05689ZM305.927 1.05689C307 0.18815 308.574 0.353857 309.443 1.42701L317.943 11.927L319.359 13.6763L317.768 15.2678L309.268 23.7678C308.291 24.7441 306.708 24.7441 305.732 23.7678C304.756 22.7915 304.756 21.2085 305.732 20.2322L312.641 13.3237L305.557 4.573C304.688 3.49985 304.854 1.92563 305.927 1.05689ZM322.927 1.05689C324 0.18815 325.574 0.353857 326.443 1.42701L334.943 11.927L336.359 13.6763L334.768 15.2678L326.268 23.7678C325.291 24.7441 323.708 24.7441 322.732 23.7678C321.756 22.7915 321.756 21.2085 322.732 20.2322L329.641 13.3237L322.557 4.573C321.688 3.49985 321.854 1.92563 322.927 1.05689ZM338.927 1.05689C340 0.18815 341.574 0.353857 342.443 1.42701L350.943 11.927L352.359 13.6763L350.768 15.2678L342.268 23.7678C341.291 24.7441 339.708 24.7441 338.732 23.7678C337.756 22.7915 337.756 21.2085 338.732 20.2322L345.641 13.3237L338.557 4.573C337.688 3.49985 337.854 1.92563 338.927 1.05689ZM354.927 1.05689C356 0.18815 357.574 0.353857 358.443 1.42701L366.943 11.927L368.359 13.6763L366.768 15.2678L358.268 23.7678C357.291 24.7441 355.708 24.7441 354.732 23.7678C353.756 22.7915 353.756 21.2085 354.732 20.2322L361.641 13.3237L354.557 4.573C353.688 3.49985 353.854 1.92563 354.927 1.05689ZM370.927 1.05689C372 0.18815 373.574 0.353857 374.443 1.42701L382.943 11.927L384.359 13.6763L382.768 15.2678L374.268 23.7678C373.291 24.7441 371.708 24.7441 370.732 23.7678C369.756 22.7915 369.756 21.2085 370.732 20.2322L377.641 13.3237L370.557 4.573C369.688 3.49985 369.854 1.92563 370.927 1.05689ZM387.927 1.05689C389 0.18815 390.574 0.353857 391.443 1.42701L399.943 11.927L401.359 13.6763L399.768 15.2678L391.268 23.7678C390.291 24.7441 388.708 24.7441 387.732 23.7678C386.756 22.7915 386.756 21.2085 387.732 20.2322L394.641 13.3237L387.557 4.573C386.688 3.49985 386.854 1.92563 387.927 1.05689ZM404.927 1.05689C406 0.18815 407.574 0.353857 408.443 1.42701L416.943 11.927L418.359 13.6763L416.768 15.2678L408.268 23.7678C407.291 24.7441 405.708 24.7441 404.732 23.7678C403.756 22.7915 403.756 21.2085 404.732 20.2322L411.641 13.3237L404.557 4.573C403.688 3.49985 403.854 1.92563 404.927 1.05689ZM421.927 1.05689C423 0.18815 424.574 0.353857 425.443 1.42701L433.943 11.927L435.359 13.6763L433.768 15.2678L425.268 23.7678C424.291 24.7441 422.708 24.7441 421.732 23.7678C420.756 22.7915 420.756 21.2085 421.732 20.2322L428.641 13.3237L421.557 4.573C420.688 3.49985 420.854 1.92563 421.927 1.05689ZM438.427 1.05689C439.5 0.18815 441.074 0.353857 441.943 1.42701L450.443 11.927L451.859 13.6763L450.268 15.2678L441.768 23.7678C440.791 24.7441 439.208 24.7441 438.232 23.7678C437.256 22.7915 437.256 21.2085 438.232 20.2322L445.141 13.3237L438.057 4.573C437.188 3.49985 437.354 1.92563 438.427 1.05689ZM454.427 1.05689C455.5 0.18815 457.074 0.353857 457.943 1.42701L466.443 11.927L467.859 13.6763L466.268 15.2678L457.768 23.7678C456.791 24.7441 455.208 24.7441 454.232 23.7678C453.256 22.7915 453.256 21.2085 454.232 20.2322L461.141 13.3237L454.057 4.573C453.188 3.49985 453.354 1.92563 454.427 1.05689ZM473.943 1.42701C473.074 0.353857 471.5 0.18815 470.427 1.05689C469.354 1.92563 469.188 3.49985 470.057 4.573L477.141 13.3237L470.232 20.2322C469.256 21.2085 469.256 22.7915 470.232 23.7678C471.209 24.7441 472.791 24.7441 473.768 23.7678L482.268 15.2678L483.859 13.6763L482.443 11.927L473.943 1.42701ZM490.443 1.42701C489.574 0.353857 488 0.18815 486.927 1.05689C485.854 1.92563 485.688 3.49985 486.557 4.573L493.641 13.3237L486.732 20.2322C485.756 21.2085 485.756 22.7915 486.732 23.7678C487.709 24.7441 489.291 24.7441 490.268 23.7678L498.768 15.2678L500.359 13.6763L498.943 11.927L490.443 1.42701ZM508.443 1.42701C507.574 0.353857 506 0.18815 504.927 1.05689C503.854 1.92563 503.688 3.49985 504.557 4.573L511.641 13.3237L504.732 20.2322C503.756 21.2085 503.756 22.7915 504.732 23.7678C505.708 24.7441 507.291 24.7441 508.268 23.7678L516.768 15.2678L518.359 13.6763L516.943 11.927L508.443 1.42701ZM525.943 1.42701C525.074 0.353857 523.5 0.18815 522.427 1.05689C521.354 1.92563 521.188 3.49985 522.057 4.573L529.141 13.3237L522.232 20.2322C521.256 21.2085 521.256 22.7915 522.232 23.7678C523.208 24.7441 524.791 24.7441 525.768 23.7678L534.268 15.2678L535.859 13.6763L534.443 11.927L525.943 1.42701ZM544.443 1.42701C543.574 0.353857 542 0.18815 540.927 1.05689C539.854 1.92563 539.688 3.49985 540.557 4.573L547.641 13.3237L540.732 20.2322C539.756 21.2085 539.756 22.7915 540.732 23.7678C541.708 24.7441 543.291 24.7441 544.268 23.7678L552.768 15.2678L554.359 13.6763L552.943 11.927L544.443 1.42701ZM561.443 1.42701C560.574 0.353857 559 0.18815 557.927 1.05689C556.854 1.92563 556.688 3.49985 557.557 4.573L564.641 13.3237L557.732 20.2322C556.756 21.2085 556.756 22.7915 557.732 23.7678C558.708 24.7441 560.291 24.7441 561.268 23.7678L569.768 15.2678L571.359 13.6763L569.943 11.927L561.443 1.42701ZM577.443 1.42701C576.574 0.353857 575 0.18815 573.927 1.05689C572.854 1.92563 572.688 3.49985 573.557 4.573L580.641 13.3237L573.732 20.2322C572.756 21.2085 572.756 22.7915 573.732 23.7678C574.708 24.7441 576.291 24.7441 577.268 23.7678L585.768 15.2678L587.359 13.6763L585.943 11.927L577.443 1.42701ZM593.443 1.42701C592.574 0.353857 591 0.18815 589.927 1.05689C588.854 1.92563 588.688 3.49985 589.557 4.573L596.641 13.3237L589.732 20.2322C588.756 21.2085 588.756 22.7915 589.732 23.7678C590.708 24.7441 592.291 24.7441 593.268 23.7678L601.768 15.2678L603.359 13.6763L601.943 11.927L593.443 1.42701ZM609.443 1.42701C608.574 0.353857 607 0.18815 605.927 1.05689C604.854 1.92563 604.688 3.49985 605.557 4.573L612.641 13.3237L605.732 20.2322C604.756 21.2085 604.756 22.7915 605.732 23.7678C606.708 24.7441 608.291 24.7441 609.268 23.7678L617.768 15.2678L619.359 13.6763L617.943 11.927L609.443 1.42701ZM626.443 1.42701C625.574 0.353857 624 0.18815 622.927 1.05689C621.854 1.92563 621.688 3.49985 622.557 4.573L629.641 13.3237L622.732 20.2322C621.756 21.2085 621.756 22.7915 622.732 23.7678C623.708 24.7441 625.291 24.7441 626.268 23.7678L634.768 15.2678L636.359 13.6763L634.943 11.927L626.443 1.42701ZM643.443 1.42701C642.574 0.353857 641 0.18815 639.927 1.05689C638.854 1.92563 638.688 3.49985 639.557 4.573L646.641 13.3237L639.732 20.2322C638.756 21.2085 638.756 22.7915 639.732 23.7678C640.708 24.7441 642.291 24.7441 643.268 23.7678L651.768 15.2678L653.359 13.6763L651.943 11.927L643.443 1.42701ZM660.443 1.42701C659.574 0.353857 658 0.18815 656.927 1.05689C655.854 1.92563 655.688 3.49985 656.557 4.573L663.641 13.3237L656.732 20.2322C655.756 21.2085 655.756 22.7915 656.732 23.7678C657.708 24.7441 659.291 24.7441 660.268 23.7678L668.768 15.2678L670.359 13.6763L668.943 11.927L660.443 1.42701ZM676.943 1.42701C676.074 0.353857 674.5 0.18815 673.427 1.05689C672.354 1.92563 672.188 3.49985 673.057 4.573L680.141 13.3237L673.232 20.2322C672.256 21.2085 672.256 22.7915 673.232 23.7678C674.208 24.7441 675.791 24.7441 676.768 23.7678L685.268 15.2678L686.859 13.6763L685.443 11.927L676.943 1.42701ZM692.943 1.42701C692.074 0.353857 690.5 0.18815 689.427 1.05689C688.354 1.92563 688.188 3.49985 689.057 4.573L696.141 13.3237L689.232 20.2322C688.256 21.2085 688.256 22.7915 689.232 23.7678C690.208 24.7441 691.791 24.7441 692.768 23.7678L701.268 15.2678L702.859 13.6763L701.443 11.927L692.943 1.42701ZM703.427 1.05689C704.5 0.18815 706.074 0.353857 706.943 1.42701L715.443 11.927L716.859 13.6763L715.268 15.2678L706.768 23.7678C705.791 24.7441 704.208 24.7441 703.232 23.7678C702.256 22.7915 702.256 21.2085 703.232 20.2322L710.141 13.3237L703.057 4.573C702.188 3.49985 702.354 1.92563 703.427 1.05689ZM719.927 1.05689C721 0.18815 722.574 0.353857 723.443 1.42701L731.943 11.927L733.359 13.6763L731.768 15.2678L723.268 23.7678C722.291 24.7441 720.708 24.7441 719.732 23.7678C718.756 22.7915 718.756 21.2085 719.732 20.2322L726.641 13.3237L719.557 4.573C718.688 3.49985 718.854 1.92563 719.927 1.05689ZM737.927 1.05689C739 0.18815 740.574 0.353857 741.443 1.42701L749.943 11.927L751.359 13.6763L749.768 15.2678L741.268 23.7678C740.291 24.7441 738.708 24.7441 737.732 23.7678C736.756 22.7915 736.756 21.2085 737.732 20.2322L744.641 13.3237L737.557 4.573C736.688 3.49985 736.854 1.92563 737.927 1.05689ZM755.427 1.05689C756.5 0.18815 758.074 0.353857 758.943 1.42701L767.443 11.927L768.859 13.6763L767.268 15.2678L758.768 23.7678C757.791 24.7441 756.208 24.7441 755.232 23.7678C754.256 22.7915 754.256 21.2085 755.232 20.2322L762.141 13.3237L755.057 4.573C754.188 3.49985 754.354 1.92563 755.427 1.05689ZM773.927 1.05689C775 0.18815 776.574 0.353857 777.443 1.42701L785.943 11.927L787.359 13.6763L785.768 15.2678L777.268 23.7678C776.291 24.7441 774.708 24.7441 773.732 23.7678C772.756 22.7915 772.756 21.2085 773.732 20.2322L780.641 13.3237L773.557 4.573C772.688 3.49985 772.854 1.92563 773.927 1.05689ZM790.927 1.05689C792 0.18815 793.574 0.353857 794.443 1.42701L802.943 11.927L804.359 13.6763L802.768 15.2678L794.268 23.7678C793.291 24.7441 791.708 24.7441 790.732 23.7678C789.756 22.7915 789.756 21.2085 790.732 20.2322L797.641 13.3237L790.557 4.573C789.688 3.49985 789.854 1.92563 790.927 1.05689ZM806.927 1.05689C808 0.18815 809.574 0.353857 810.443 1.42701L818.943 11.927L820.359 13.6763L818.768 15.2678L810.268 23.7678C809.291 24.7441 807.708 24.7441 806.732 23.7678C805.756 22.7915 805.756 21.2085 806.732 20.2322L813.641 13.3237L806.557 4.573C805.688 3.49985 805.854 1.92563 806.927 1.05689ZM822.927 1.05689C824 0.18815 825.574 0.353857 826.443 1.42701L834.943 11.927L836.359 13.6763L834.768 15.2678L826.268 23.7678C825.291 24.7441 823.708 24.7441 822.732 23.7678C821.756 22.7915 821.756 21.2085 822.732 20.2322L829.641 13.3237L822.557 4.573C821.688 3.49985 821.854 1.92563 822.927 1.05689ZM838.927 1.05689C840 0.18815 841.574 0.353857 842.443 1.42701L850.943 11.927L852.359 13.6763L850.768 15.2678L842.268 23.7678C841.291 24.7441 839.708 24.7441 838.732 23.7678C837.756 22.7915 837.756 21.2085 838.732 20.2322L845.641 13.3237L838.557 4.573C837.688 3.49985 837.854 1.92563 838.927 1.05689ZM855.927 1.05689C857 0.18815 858.574 0.353857 859.443 1.42701L867.943 11.927L869.359 13.6763L867.768 15.2678L859.268 23.7678C858.291 24.7441 856.708 24.7441 855.732 23.7678C854.756 22.7915 854.756 21.2085 855.732 20.2322L862.641 13.3237L855.557 4.573C854.688 3.49985 854.854 1.92563 855.927 1.05689ZM872.927 1.05689C874 0.18815 875.574 0.353857 876.443 1.42701L884.943 11.927L886.359 13.6763L884.768 15.2678L876.268 23.7678C875.291 24.7441 873.708 24.7441 872.732 23.7678C871.756 22.7915 871.756 21.2085 872.732 20.2322L879.641 13.3237L872.557 4.573C871.688 3.49985 871.854 1.92563 872.927 1.05689ZM889.927 1.05689C891 0.18815 892.574 0.353857 893.443 1.42701L901.943 11.927L903.359 13.6763L901.768 15.2678L893.268 23.7678C892.291 24.7441 890.708 24.7441 889.732 23.7678C888.756 22.7915 888.756 21.2085 889.732 20.2322L896.641 13.3237L889.557 4.573C888.688 3.49985 888.854 1.92563 889.927 1.05689ZM906.427 1.05689C907.5 0.18815 909.074 0.353857 909.943 1.42701L918.443 11.927L919.859 13.6763L918.268 15.2678L909.768 23.7678C908.791 24.7441 907.208 24.7441 906.232 23.7678C905.256 22.7915 905.256 21.2085 906.232 20.2322L913.141 13.3237L906.057 4.573C905.188 3.49985 905.354 1.92563 906.427 1.05689ZM922.427 1.05689C923.5 0.18815 925.074 0.353857 925.943 1.42701L934.443 11.927L935.859 13.6763L934.268 15.2678L925.768 23.7678C924.791 24.7441 923.208 24.7441 922.232 23.7678C921.256 22.7915 921.256 21.2085 922.232 20.2322L929.141 13.3237L922.057 4.573C921.188 3.49985 921.354 1.92563 922.427 1.05689ZM941.943 1.42701C941.074 0.353857 939.5 0.18815 938.427 1.05689C937.354 1.92563 937.188 3.49985 938.057 4.573L945.141 13.3237L938.232 20.2322C937.256 21.2085 937.256 22.7915 938.232 23.7678C939.208 24.7441 940.791 24.7441 941.768 23.7678L950.268 15.2678L951.859 13.6763L950.443 11.927L941.943 1.42701ZM958.443 1.42701C957.574 0.353857 956 0.18815 954.927 1.05689C953.854 1.92563 953.688 3.49985 954.557 4.573L961.641 13.3237L954.732 20.2322C953.756 21.2085 953.756 22.7915 954.732 23.7678C955.708 24.7441 957.291 24.7441 958.268 23.7678L966.768 15.2678L968.359 13.6763L966.943 11.927L958.443 1.42701ZM976.443 1.42701C975.574 0.353857 974 0.18815 972.927 1.05689C971.854 1.92563 971.688 3.49985 972.557 4.573L979.641 13.3237L972.732 20.2322C971.756 21.2085 971.756 22.7915 972.732 23.7678C973.708 24.7441 975.291 24.7441 976.268 23.7678L984.768 15.2678L986.359 13.6763L984.943 11.927L976.443 1.42701ZM993.943 1.42701C993.074 0.353857 991.5 0.18815 990.427 1.05689C989.354 1.92563 989.188 3.49985 990.057 4.573L997.141 13.3237L990.232 20.2322C989.256 21.2085 989.256 22.7915 990.232 23.7678C991.208 24.7441 992.791 24.7441 993.768 23.7678L1002.27 15.2678L1003.86 13.6763L1002.44 11.927L993.943 1.42701ZM1012.44 1.42701C1011.57 0.353857 1010 0.18815 1008.93 1.05689C1007.85 1.92563 1007.69 3.49985 1008.56 4.573L1015.64 13.3237L1008.73 20.2322C1007.76 21.2085 1007.76 22.7915 1008.73 23.7678C1009.71 24.7441 1011.29 24.7441 1012.27 23.7678L1020.77 15.2678L1022.36 13.6763L1020.94 11.927L1012.44 1.42701ZM1029.44 1.42701C1028.57 0.353857 1027 0.18815 1025.93 1.05689C1024.85 1.92563 1024.69 3.49985 1025.56 4.573L1032.64 13.3237L1025.73 20.2322C1024.76 21.2085 1024.76 22.7915 1025.73 23.7678C1026.71 24.7441 1028.29 24.7441 1029.27 23.7678L1037.77 15.2678L1039.36 13.6763L1037.94 11.927L1029.44 1.42701ZM1045.44 1.42701C1044.57 0.353857 1043 0.18815 1041.93 1.05689C1040.85 1.92563 1040.69 3.49985 1041.56 4.573L1048.64 13.3237L1041.73 20.2322C1040.76 21.2085 1040.76 22.7915 1041.73 23.7678C1042.71 24.7441 1044.29 24.7441 1045.27 23.7678L1053.77 15.2678L1055.36 13.6763L1053.94 11.927L1045.44 1.42701ZM1061.44 1.42701C1060.57 0.353857 1059 0.18815 1057.93 1.05689C1056.85 1.92563 1056.69 3.49985 1057.56 4.573L1064.64 13.3237L1057.73 20.2322C1056.76 21.2085 1056.76 22.7915 1057.73 23.7678C1058.71 24.7441 1060.29 24.7441 1061.27 23.7678L1069.77 15.2678L1071.36 13.6763L1069.94 11.927L1061.44 1.42701ZM1077.44 1.42701C1076.57 0.353857 1075 0.18815 1073.93 1.05689C1072.85 1.92563 1072.69 3.49985 1073.56 4.573L1080.64 13.3237L1073.73 20.2322C1072.76 21.2085 1072.76 22.7915 1073.73 23.7678C1074.71 24.7441 1076.29 24.7441 1077.27 23.7678L1085.77 15.2678L1087.36 13.6763L1085.94 11.927L1077.44 1.42701ZM1094.44 1.42701C1093.57 0.353857 1092 0.18815 1090.93 1.05689C1089.85 1.92563 1089.69 3.49985 1090.56 4.573L1097.64 13.3237L1090.73 20.2322C1089.76 21.2085 1089.76 22.7915 1090.73 23.7678C1091.71 24.7441 1093.29 24.7441 1094.27 23.7678L1102.77 15.2678L1104.36 13.6763L1102.94 11.927L1094.44 1.42701ZM1111.44 1.42701C1110.57 0.353857 1109 0.18815 1107.93 1.05689C1106.85 1.92563 1106.69 3.49985 1107.56 4.573L1114.64 13.3237L1107.73 20.2322C1106.76 21.2085 1106.76 22.7915 1107.73 23.7678C1108.71 24.7441 1110.29 24.7441 1111.27 23.7678L1119.77 15.2678L1121.36 13.6763L1119.94 11.927L1111.44 1.42701ZM1128.44 1.42701C1127.57 0.353857 1126 0.18815 1124.93 1.05689C1123.85 1.92563 1123.69 3.49985 1124.56 4.573L1131.64 13.3237L1124.73 20.2322C1123.76 21.2085 1123.76 22.7915 1124.73 23.7678C1125.71 24.7441 1127.29 24.7441 1128.27 23.7678L1136.77 15.2678L1138.36 13.6763L1136.94 11.927L1128.44 1.42701ZM1144.94 1.42701C1144.07 0.353857 1142.5 0.18815 1141.43 1.05689C1140.35 1.92563 1140.19 3.49985 1141.06 4.573L1148.14 13.3237L1141.23 20.2322C1140.26 21.2085 1140.26 22.7915 1141.23 23.7678C1142.21 24.7441 1143.79 24.7441 1144.77 23.7678L1153.27 15.2678L1154.86 13.6763L1153.44 11.927L1144.94 1.42701ZM1160.94 1.42701C1160.07 0.353857 1158.5 0.18815 1157.43 1.05689C1156.35 1.92563 1156.19 3.49985 1157.06 4.573L1164.14 13.3237L1157.23 20.2322C1156.26 21.2085 1156.26 22.7915 1157.23 23.7678C1158.21 24.7441 1159.79 24.7441 1160.77 23.7678L1169.27 15.2678L1170.86 13.6763L1169.44 11.927L1160.94 1.42701Z" fill="#E5E5E5" fill-opacity="0.17"/>
</svg>
