<svg width="18" height="18" viewBox="0 0 18 18" fill="none" xmlns="http://www.w3.org/2000/svg">
<g id="material-symbols:work">
<g id="Group 11">
<path id="Vector" d="M3 15.75C2.5875 15.75 2.23425 15.603 1.94025 15.309C1.64625 15.015 1.4995 14.662 1.5 14.25V6C1.5 5.5875 1.647 5.23425 1.941 4.94025C2.235 4.64625 2.588 4.4995 3 4.5H6V3C6 2.5875 6.147 2.23425 6.441 1.94025C6.735 1.64625 7.088 1.4995 7.5 1.5H10.5C10.9125 1.5 11.2658 1.647 11.5598 1.941C11.8538 2.235 12.0005 2.588 12 3V4.5H15C15.4125 4.5 15.7658 4.647 16.0598 4.941C16.3538 5.235 16.5005 5.588 16.5 6V14.25C16.5 14.6625 16.353 15.0158 16.059 15.3098C15.765 15.6038 15.412 15.7505 15 15.75H3ZM7.5 4.5H10.5V3H7.5V4.5Z" fill="#FCA311"/>
<circle id="Ellipse 1" cx="14" cy="14" r="3.5" fill="#FCA311" stroke="#14213D"/>
<g id="Group 10">
<line id="Line 1" x1="13.5" y1="12" x2="13.5" y2="15" stroke="black"/>
<line id="Line 2" x1="13" y1="14.5" x2="15" y2="14.5" stroke="black"/>
</g>
</g>
</g>
</svg>
