<svg width="18" height="18" viewBox="0 0 18 18" fill="none" xmlns="http://www.w3.org/2000/svg">
<g id="mdi:book-education">
<path id="Vector" d="M6.615 12.75L9.75 14.46V16.5H4.5C3.6675 16.5 3 15.8325 3 15V3C3 2.60218 3.15804 2.22064 3.43934 1.93934C3.72064 1.65804 4.10218 1.5 4.5 1.5H5.25V6.75L7.125 5.625L9 6.75V1.5H13.5C13.8978 1.5 14.2794 1.65804 14.5607 1.93934C14.842 2.22064 15 2.60218 15 3V9.405L13.875 8.79L6.615 12.75ZM18 12.75L13.875 10.5L9.75 12.75L13.875 15L18 12.75ZM11.25 14.3175V15.8175L13.875 17.25L16.5 15.8175V14.3175L13.875 15.75L11.25 14.3175Z" fill="#FCA311"/>
</g>
</svg>
