<svg width="50" height="50" viewBox="0 0 50 50" fill="none" xmlns="http://www.w3.org/2000/svg">
<g id="simple-icons:adobeillustrator" clip-path="url(#clip0_7_100)">
<path id="Vector" d="M21.9375 22.3542C21.7292 21.7083 21.5417 21.0833 21.3333 20.4375C21.125 19.7917 20.9375 19.1875 20.7708 18.5833C20.6042 18 20.4583 17.4583 20.3125 16.9583H20.2708C20.0833 17.8542 19.8542 18.75 19.5625 19.6458C19.25 20.6458 18.9375 21.6875 18.6042 22.7292C18.3125 23.7917 18 24.7708 17.6875 25.6458H22.9792C22.8542 25.2062 22.6875 24.6875 22.5 24.1437C22.3125 23.5833 22.125 22.9792 21.9375 22.3542ZM41.1458 0.625H8.85417C3.95833 0.625 0 4.58333 0 9.47917V40.5208C0 45.4167 3.95833 49.375 8.85417 49.375H41.1458C46.0417 49.375 50 45.4167 50 40.5208V9.47917C50 4.58333 46.0417 0.625 41.1458 0.625ZM30.625 35.0625H26.2687C26.125 35.0833 25.9792 34.9792 25.9375 34.8333L24.2292 29.875H16.4792L14.8958 34.7708C14.8542 34.9583 14.6875 35.0833 14.5 35.0646H10.5833C10.3542 35.0646 10.2917 34.9375 10.3542 34.6896L17.0625 15.375C17.125 15.1667 17.1875 14.9375 17.2708 14.6875C17.3542 14.25 17.3958 13.7917 17.3958 13.3333C17.375 13.2292 17.4583 13.125 17.5625 13.1042H22.9583C23.125 13.1042 23.2083 13.1667 23.2292 13.2708L30.8333 34.7292C30.8958 34.9562 30.8333 35.0625 30.625 35.0625ZM37.7083 34.75C37.7083 34.9792 37.6271 35.0833 37.4396 35.0833H33.3542C33.1458 35.0833 33.0417 34.9562 33.0417 34.75V18.7083C33.0417 18.5 33.1271 18.4167 33.3146 18.4167H37.4396C37.6271 18.4167 37.7083 18.5208 37.7083 18.7083V34.75ZM37.2729 15.9375C37.0269 16.1874 36.7302 16.3817 36.4029 16.5075C36.0755 16.6332 35.7251 16.6875 35.375 16.6667C34.6875 16.6875 34.0208 16.4167 33.5187 15.9375C33.0414 15.4156 32.7872 14.7277 32.8104 14.0208C32.7896 13.3125 33.0604 12.6458 33.5583 12.1667C34.0625 11.6875 34.7292 11.4375 35.4167 11.4375C36.2312 11.4375 36.8521 11.6875 37.3125 12.1667C37.7708 12.6667 38.0208 13.3333 38 14.0208C38.0208 14.7292 37.7708 15.4167 37.2729 15.9375Z" fill="white"/>
</g>
<defs>
<clipPath id="clip0_7_100">
<rect width="50" height="50" fill="white"/>
</clipPath>
</defs>
</svg>
