<svg width="50" height="50" viewBox="0 0 50 50" fill="none" xmlns="http://www.w3.org/2000/svg">
<g id="simple-icons:adobexd" clip-path="url(#clip0_7_104)">
<path id="Vector" d="M8.85417 0.625C3.95833 0.625 0 4.58333 0 9.47917V40.5208C0 45.4167 3.95833 49.375 8.85417 49.375H41.1458C46.0417 49.375 50 45.4167 50 40.5208V9.47917C50 4.58333 46.0417 0.625 41.1458 0.625H8.85417ZM38.1667 11.3125H42.3958C42.5 11.2917 42.5833 11.375 42.6042 11.4583V31.3333C42.6042 31.7083 42.625 32.125 42.6458 32.5833C42.6875 33.0208 42.7083 33.4375 42.7292 33.7917C42.7292 33.9375 42.6667 34.0625 42.5208 34.125C41.4375 34.5833 40.2917 34.9167 39.125 35.125C38.0625 35.3125 37 35.4167 35.9167 35.4167C34.375 35.4375 32.8333 35.125 31.4375 34.4792C30.125 33.875 29.0417 32.875 28.2917 31.6458C27.5208 30.375 27.1458 28.7917 27.1458 26.8958C27.1252 25.3396 27.5294 23.8071 28.315 22.4636C29.1006 21.12 30.2378 20.0161 31.6042 19.2708C33.0625 18.4583 34.8125 18.0625 36.875 18.0625C36.9792 18.0625 37.125 18.0625 37.3125 18.0833C37.5 18.1042 37.7083 18.1042 37.9583 18.125V11.5417C37.9583 11.3958 38.0208 11.3125 38.1667 11.3125ZM7.66667 13.125H12.3958C12.5 13.125 12.6042 13.1458 12.6875 13.1667C12.7708 13.2083 12.8333 13.2708 12.8958 13.3542C13.2917 14.25 13.75 15.1458 14.2292 16.0417C14.7292 16.9375 15.2083 17.8125 15.7292 18.6875C16.2292 19.5625 16.6875 20.4375 17.125 21.3333H17.1667C17.6042 20.4167 18.0625 19.5208 18.5208 18.6458C18.9792 17.7708 19.4583 16.8958 19.9375 16.0208C20.4167 15.1458 20.875 14.25 21.3333 13.3958C21.3542 13.3125 21.3958 13.2292 21.4583 13.1875C21.5408 13.1418 21.6368 13.127 21.7292 13.1458H26.125C26.2292 13.125 26.3333 13.1875 26.3542 13.2917C26.375 13.3125 26.3333 13.3958 26.2917 13.4375L20.0417 23.75L26.7083 34.6875C26.75 34.7708 26.7708 34.8542 26.75 34.9375C26.7292 35.0208 26.6458 34.9583 26.5208 34.9792H21.75C21.4167 34.9792 21.1875 34.9583 21.0417 34.75C20.6042 33.875 20.1458 33.0208 19.7083 32.1458C19.2708 31.2917 18.7917 30.4167 18.2917 29.5208C17.7917 28.625 17.2917 27.7292 16.7917 26.8125H16.75C16.3125 27.7083 15.8333 28.6042 15.3542 29.5C14.875 30.3958 14.3958 31.2917 13.9375 32.1667C13.4583 33.0417 12.9792 33.9375 12.5 34.7917C12.4167 35 12.25 35.0208 12.0208 35.0208H7.4375C7.35417 35.0208 7.29167 35.0625 7.29167 34.9583C7.2825 34.9193 7.28146 34.8788 7.28863 34.8394C7.2958 34.8 7.31102 34.7625 7.33333 34.7292L13.8125 24.1042L7.5 13.4167C7.4375 13.3333 7.41667 13.25 7.45833 13.2083C7.5 13.1458 7.58333 13.125 7.66667 13.125ZM36.7083 21.9375C35.8958 21.9375 35.0833 22.1042 34.3542 22.4792C33.6458 22.8333 33.0417 23.3542 32.5833 24.0208C32.125 24.6875 31.8958 25.5833 31.8958 26.6667C31.875 27.3958 32 28.125 32.25 28.8125C32.4583 29.375 32.7708 29.875 33.1875 30.2917C33.5833 30.6667 34.0625 30.9583 34.6042 31.125C35.1667 31.3125 35.75 31.3958 36.3333 31.3958C36.6458 31.3958 36.9375 31.375 37.2083 31.3542C37.4792 31.375 37.7083 31.3333 37.9583 31.25V22.0833C37.5489 21.9855 37.1293 21.9366 36.7083 21.9375Z" fill="white"/>
</g>
<defs>
<clipPath id="clip0_7_104">
<rect width="50" height="50" fill="white"/>
</clipPath>
</defs>
</svg>
