<svg width="50" height="50" viewBox="0 0 50 50" fill="none" xmlns="http://www.w3.org/2000/svg">
<g id="simple-icons:adobeaftereffects" clip-path="url(#clip0_7_106)">
<path id="Vector" d="M17.7917 22.3542C17.5833 21.7083 17.3958 21.0833 17.1875 20.4375C16.9792 19.7917 16.7917 19.1875 16.625 18.5833C16.4583 18 16.3125 17.4583 16.1667 16.9583H16.125C15.9375 17.8542 15.7083 18.75 15.4167 19.6458C15.1042 20.6458 14.7917 21.6875 14.4583 22.7292C14.1875 23.7917 13.8542 24.7708 13.5417 25.6458H18.8333C18.7083 25.2083 18.5417 24.6875 18.3542 24.1458C18.1667 23.5833 17.9792 22.9792 17.7917 22.3542ZM35.6667 21.75C34.5208 21.6875 33.4375 22.2917 32.8958 23.3333C32.6458 23.8125 32.5 24.3125 32.4375 24.8333H36.8312C37.3729 24.8333 37.7687 24.8333 38.0187 24.8125C38.1854 24.7917 38.3521 24.75 38.4979 24.6458V24.4375C38.4898 24.0747 38.41 23.7171 38.2631 23.3853C38.1162 23.0535 37.905 22.7541 37.6418 22.5043C37.3787 22.2544 37.0686 22.0592 36.7296 21.9297C36.3906 21.8003 36.0294 21.7392 35.6667 21.75ZM41.1458 0.625H8.85417C3.95833 0.625 0 4.58333 0 9.47917V40.5208C0 45.4167 3.95833 49.375 8.85417 49.375H41.1458C46.0417 49.375 50 45.4167 50 40.5208V9.47917C50 4.58333 46.0417 0.625 41.1458 0.625ZM26.4792 35.0229H22.125C21.9792 35.0438 21.8333 34.9375 21.7917 34.7938L20.0833 29.7937H12.3333L10.75 34.7104C10.7083 34.8979 10.5417 35.0229 10.3542 35.0021H6.4375C6.20833 35.0021 6.14583 34.8771 6.20833 34.6271L12.9167 15.3958C12.9792 15.1875 13.0417 15 13.125 14.75C13.2083 14.3125 13.25 13.8542 13.25 13.3958C13.2292 13.2917 13.3125 13.1875 13.4167 13.1667H18.8125C18.9583 13.1667 19.0625 13.2292 19.0833 13.3333L26.6875 34.6875C26.75 34.9167 26.6896 35.0229 26.4792 35.0229ZM42.8354 26.7083C42.7917 27.1021 42.7708 27.3958 42.75 27.5833C42.7292 27.7292 42.6062 27.8542 42.4583 27.8542C42.3333 27.8542 42.1042 27.875 41.7708 27.8979C41.4396 27.9396 41.0417 27.9583 40.5646 27.9583C40.0854 27.9583 39.5833 27.875 39.0437 27.875H32.4396C32.5208 28.5208 32.7312 29.1667 33.0854 29.7292C33.4541 30.2899 33.9834 30.7263 34.6042 30.9812C35.4375 31.3354 36.3563 31.5229 37.2729 31.5021C38.0021 31.4792 38.7292 31.4187 39.4375 31.2729C40.0739 31.1917 40.6976 31.0307 41.2937 30.7937C41.3979 30.7125 41.4604 30.7521 41.4604 30.9604V34.15C41.4604 34.2313 41.4396 34.3167 41.4167 34.3979C41.3792 34.4558 41.3303 34.5055 41.2729 34.5438C40.6063 34.8354 39.9188 35.0438 39.1896 35.1688C38.2083 35.3563 37.2313 35.4396 36.2313 35.4188C34.6458 35.4188 33.3146 35.1687 32.2312 34.6896C31.212 34.2457 30.3119 33.5676 29.6042 32.7104C28.9396 31.8979 28.4583 30.9812 28.1667 29.9812C27.8751 28.993 27.7285 27.9678 27.7312 26.9375C27.7312 25.8146 27.8979 24.7083 28.2521 23.625C28.5854 22.5833 29.1062 21.625 29.8146 20.7708C30.5021 19.9375 31.3542 19.2708 32.3333 18.7917C33.3146 18.3125 34.4792 18.1458 35.8125 18.1458C36.9234 18.1199 38.0262 18.3405 39.0417 18.7917C39.8958 19.1667 40.6458 19.7292 41.2292 20.4583C41.7708 21.1667 42.2083 21.9583 42.4813 22.8333C42.75 23.6667 42.875 24.5208 42.875 25.375C42.875 25.875 42.8542 26.3125 42.8354 26.7083Z" fill="white"/>
</g>
<defs>
<clipPath id="clip0_7_106">
<rect width="50" height="50" fill="white"/>
</clipPath>
</defs>
</svg>
