<svg width="50" height="50" viewBox="0 0 50 50" fill="none" xmlns="http://www.w3.org/2000/svg">
<g id="simple-icons:adobephotoshop" clip-path="url(#clip0_7_98)">
<path id="Vector" d="M20.5208 17.5417C19.75 17.2292 18.9167 17.1042 18.0625 17.125C17.5208 17.125 17.0417 17.125 16.6458 17.1458C16.2292 17.125 15.9375 17.1458 15.7917 17.1667V24.1667C16.0833 24.1875 16.3542 24.2083 16.6042 24.2083H17.7083C18.5208 24.2083 19.3333 24.0833 20.1042 23.8333C20.7708 23.6458 21.3542 23.25 21.8125 22.7292C22.25 22.2083 22.4583 21.5 22.4583 20.5833C22.4792 19.9375 22.3125 19.2917 21.9792 18.7292C21.6318 18.1882 21.1209 17.7722 20.5208 17.5417ZM41.1458 0.625H8.85417C3.95833 0.625 0 4.58333 0 9.47917V40.5187C0 45.4146 3.95833 49.3729 8.85417 49.3729H41.1458C46.0417 49.3729 50 45.4146 50 40.5187V9.47917C50 4.58333 46.0417 0.625 41.1458 0.625ZM25.7479 24.8958C24.9167 26.0625 23.75 26.9375 22.3958 27.4375C20.9792 27.9583 19.4167 28.1458 17.7083 28.1458C17.2083 28.1458 16.875 28.1458 16.6667 28.125C16.4583 28.1042 16.1667 28.1042 15.7708 28.1042V34.7896C15.7917 34.9354 15.6875 35.0625 15.5417 35.0833H11.5C11.3333 35.0833 11.25 34.9979 11.25 34.8104V13.375C11.25 13.2292 11.3125 13.1458 11.4583 13.1458C11.8125 13.1458 12.1458 13.1458 12.625 13.125C13.125 13.1042 13.6458 13.1042 14.2083 13.0833C14.7708 13.0625 15.375 13.0625 16.0208 13.0417C16.6667 13.0208 17.2917 13.0208 17.9167 13.0208C19.625 13.0208 21.0417 13.2292 22.2083 13.6667C23.25 14.0208 24.2083 14.6042 25 15.375C25.6667 16.0417 26.1875 16.8542 26.5208 17.75C26.8312 18.625 26.9979 19.5208 26.9979 20.4583C27 22.25 26.5833 23.7292 25.7479 24.8958ZM40.5208 33C39.9375 33.8333 39.1229 34.4771 38.1875 34.8563C37.1667 35.2917 35.9167 35.5187 34.4146 35.5187C33.4583 35.5187 32.5187 35.4375 31.5833 35.25C30.8542 35.1229 30.125 34.8958 29.4583 34.5833C29.3125 34.5021 29.2062 34.3562 29.2271 34.1896V30.5646C29.2271 30.5042 29.25 30.4187 29.3125 30.3771C29.3729 30.3354 29.4375 30.3562 29.5 30.3979C30.3125 30.8771 31.1667 31.2125 32.0833 31.4187C32.8729 31.6271 33.7062 31.7312 34.5417 31.7312C35.3333 31.7312 35.8958 31.625 36.2708 31.4375C36.6042 31.2917 36.8333 30.9375 36.8333 30.5625C36.8333 30.2687 36.6667 30 36.3333 29.7292C36 29.4604 35.3146 29.1479 34.2938 28.7479C33.2313 28.3729 32.2542 27.8729 31.3354 27.25C30.6835 26.7831 30.1423 26.1785 29.75 25.4792C29.4189 24.82 29.255 24.0895 29.2729 23.3521C29.2729 22.4562 29.5229 21.6021 29.9833 20.8312C30.5042 19.9979 31.2729 19.3312 32.1687 18.9146C33.1458 18.4167 34.375 18.1875 35.8542 18.1875C36.7083 18.1875 37.5833 18.25 38.4375 18.375C39.0625 18.4583 39.6667 18.625 40.2292 18.8542C40.3104 18.875 40.3958 18.9583 40.4375 19.0417C40.4583 19.125 40.4792 19.2083 40.4792 19.2917V22.6875C40.4792 22.7708 40.4375 22.8542 40.375 22.8958C40.1875 22.9375 40.0833 22.9375 40 22.8958C39.375 22.5625 38.7083 22.3333 38 22.1875C37.2292 22.0208 36.4583 21.9167 35.6667 21.9167C35.25 21.8958 34.8125 21.9583 34.4146 22.0625C34.1458 22.125 33.9146 22.2708 33.7687 22.4792C33.6646 22.6458 33.6021 22.8542 33.6021 23.0417C33.6021 23.2292 33.6854 23.4167 33.8125 23.5833C34 23.8125 34.2479 24 34.5208 24.1458C34.9979 24.3958 35.5 24.625 35.9979 24.8333C37.125 25.2083 38.2083 25.7292 39.2083 26.3542C39.8958 26.7896 40.4583 27.375 40.8521 28.0833C41.1854 28.7458 41.3521 29.4792 41.3312 30.2271C41.3542 31.2083 41.0625 32.1854 40.5208 33Z" fill="#F5F5F5"/>
</g>
<defs>
<clipPath id="clip0_7_98">
<rect width="50" height="50" fill="white"/>
</clipPath>
</defs>
</svg>
