<svg width="50" height="50" viewBox="0 0 50 50" fill="none" xmlns="http://www.w3.org/2000/svg">
<g id="skill-icons:php-dark" clip-path="url(#clip0_7_127)">
<g id="Group">
<path id="Vector" d="M38.2812 0H11.7188C5.24666 0 0 5.24666 0 11.7188V38.2812C0 44.7533 5.24666 50 11.7188 50H38.2812C44.7533 50 50 44.7533 50 38.2812V11.7188C50 5.24666 44.7533 0 38.2812 0Z" fill="white"/>
<path id="Vector_2" d="M9.60117 19.5793H15.1496C16.7781 19.593 17.9582 20.0625 18.6898 20.9871C19.4215 21.9117 19.6629 23.1746 19.4145 24.7758C19.318 25.5074 19.1039 26.225 18.7727 26.9289C18.4551 27.6328 18.0137 28.2676 17.4477 28.8336C16.7574 29.5512 16.0191 30.0066 15.2324 30.2C14.4457 30.3934 13.6313 30.4898 12.7895 30.4898H10.3051L9.51836 34.4234H6.64062L9.60117 19.5793ZM12.0234 21.9395L10.7812 28.1504C10.8641 28.1641 10.9469 28.1711 11.0297 28.1711H11.3195C12.6445 28.1848 13.7488 28.0539 14.632 27.7777C15.5152 27.4879 16.109 26.4805 16.4125 24.7551C16.6609 23.3059 16.4125 22.4707 15.6672 22.25C14.9355 22.0293 14.018 21.9258 12.9137 21.9395C12.748 21.9531 12.5895 21.9602 12.4375 21.9602H12.0027L12.0234 21.9395ZM22.6926 15.625H25.5496L24.7422 19.5793H27.3094C28.7172 19.607 29.766 19.8969 30.4563 20.4488C31.1602 21.0008 31.3672 22.05 31.0773 23.5957L29.6902 30.4898H26.7918L28.1168 23.9062C28.2547 23.216 28.2133 22.7262 27.9926 22.4363C27.7719 22.1465 27.2957 22.0016 26.5641 22.0016L24.266 21.9809L22.5684 30.4898H19.7113L22.6926 15.625ZM34.1453 19.5793H39.6937C41.3223 19.593 42.5023 20.0625 43.234 20.9871C43.9656 21.9117 44.207 23.1746 43.9586 24.7758C43.8621 25.5074 43.648 26.225 43.3168 26.9289C42.9992 27.6328 42.5578 28.2676 41.9918 28.8336C41.3016 29.5512 40.5633 30.0066 39.7766 30.2C38.9898 30.3934 38.1754 30.4898 37.3336 30.4898H34.8492L34.0625 34.4234H31.1848L34.1453 19.5793ZM36.5676 21.9395L35.3254 28.1504C35.4082 28.1641 35.491 28.1711 35.5738 28.1711H35.8637C37.1887 28.1848 38.293 28.0539 39.1762 27.7777C40.0594 27.4879 40.6531 26.4805 40.9566 24.7551C41.2051 23.3059 40.9566 22.4707 40.2113 22.25C39.4797 22.0293 38.5621 21.9258 37.4578 21.9395C37.2922 21.9531 37.1336 21.9602 36.9816 21.9602H36.5469L36.5676 21.9395Z" fill="black"/>
</g>
</g>
<defs>
<clipPath id="clip0_7_127">
<rect width="50" height="50" fill="white"/>
</clipPath>
</defs>
</svg>
