<svg width="50" height="50" viewBox="0 0 50 50" fill="none" xmlns="http://www.w3.org/2000/svg">
<g id="skill-icons:jquery" clip-path="url(#clip0_7_116)">
<g id="Group">
<path id="Vector" d="M38.2812 0H11.7188C5.24666 0 0 5.24666 0 11.7188V38.2812C0 44.7533 5.24666 50 11.7188 50H38.2812C44.7533 50 50 44.7533 50 38.2812V11.7188C50 5.24666 44.7533 0 38.2812 0Z" fill="white"/>
<path id="Vector_2" d="M15.4762 13.4258C13.5258 16.2809 13.7687 19.9948 15.2547 23.0247L15.3641 23.2405L15.4379 23.3772C15.4516 23.4038 15.4672 23.4299 15.4814 23.4557C15.5072 23.5038 15.533 23.5499 15.5553 23.5971L15.6975 23.8456L15.7785 23.9823L15.9435 24.2452L16.0174 24.3559C16.0912 24.4741 16.1746 24.5915 16.2566 24.7073L16.2633 24.7165C16.2762 24.735 16.2906 24.7534 16.3004 24.7719C16.3711 24.8715 16.4478 24.9698 16.5217 25.0672L16.6037 25.1735L16.8049 25.4254L16.8816 25.5192C16.9732 25.6295 17.0668 25.7385 17.1623 25.8456L17.1682 25.8514C17.1719 25.8561 17.1756 25.8588 17.1793 25.8635C17.2719 25.968 17.3668 26.0702 17.4642 26.17L17.5558 26.2637L17.7836 26.4913L17.8766 26.5813C17.9789 26.6793 18.083 26.7756 18.1885 26.8704L18.2476 26.9219L18.5308 27.1657L18.648 27.261L18.8844 27.4456L19.0107 27.5434L19.3719 27.8073C19.381 27.8135 19.3891 27.8202 19.3984 27.8264C19.4832 27.8856 19.5693 27.9428 19.6557 28L19.7672 28.0756L20.1703 28.3268L20.2818 28.3907L20.5846 28.5633C20.6398 28.5936 20.6965 28.6225 20.7517 28.6512L20.9682 28.762L21.018 28.7864L21.1066 28.8299L21.4498 28.9916L21.5226 29.0286C21.6551 29.0874 21.7885 29.1438 21.9228 29.1979L22.0203 29.2372L22.3978 29.3795L22.4451 29.3965C22.5846 29.4458 22.7249 29.4926 22.866 29.537L22.9676 29.5678C23.1152 29.6122 23.2537 29.6651 23.4021 29.6934C32.8338 31.4493 35.5742 23.9247 35.5742 23.9247C33.2732 26.9778 29.1889 27.7825 25.3193 26.8866C25.1726 26.8497 25.0305 26.8065 24.8873 26.7633L24.7795 26.7264C24.6402 26.6828 24.5016 26.6369 24.3639 26.5887L24.3066 26.5676C24.1837 26.5233 24.0615 26.4772 23.94 26.4292L23.8367 26.3877C23.7037 26.3344 23.5717 26.2786 23.4408 26.2202L23.3619 26.1848L23.0281 26.026L22.9322 25.9788C22.8455 25.9351 22.7593 25.8905 22.6736 25.8448L22.5014 25.7524C22.3972 25.6954 22.294 25.6365 22.192 25.5756L22.0875 25.5165C21.9518 25.4349 21.8174 25.3512 21.6844 25.2655C21.6474 25.2415 21.6119 25.2161 21.5754 25.1917L21.2885 24.9975L21.1963 24.9311L20.925 24.7317L20.8045 24.6393L20.5598 24.4444L20.4506 24.3559L20.1459 24.0975C20.1343 24.0871 20.122 24.0776 20.109 24.069C20.0007 23.9717 19.8939 23.8727 19.7887 23.7721L19.6984 23.6836L19.468 23.454L19.3781 23.3616C19.2821 23.2619 19.188 23.1605 19.0957 23.0575C19.0912 23.0522 19.0859 23.0475 19.0816 23.0426C18.984 22.9338 18.8885 22.8229 18.7951 22.7104L18.7201 22.6196L18.5135 22.36L18.4377 22.2641L18.1996 21.9411C16.0512 18.9563 15.2832 14.8399 16.9961 11.459L15.4762 13.4258ZM21.5307 11.0204C20.1205 13.0877 20.1969 15.8543 21.2971 18.0407C21.481 18.4077 21.6895 18.7621 21.9209 19.1012C22.1322 19.4096 22.3666 19.777 22.6471 20.0243C22.7486 20.135 22.8549 20.2458 22.9635 20.3588C22.9908 20.3872 23.0189 20.4141 23.0469 20.4426C23.1523 20.5471 23.2601 20.6493 23.3703 20.7487C23.3748 20.7524 23.3789 20.7567 23.3836 20.7604C23.5077 20.8707 23.6347 20.9778 23.7642 21.0817L23.85 21.1495C23.9789 21.251 24.1107 21.3489 24.2449 21.4434C24.2484 21.4463 24.2521 21.4493 24.256 21.452C24.315 21.4936 24.376 21.5331 24.4361 21.5729C24.465 21.5922 24.4922 21.6125 24.5211 21.6305C24.6174 21.6936 24.715 21.7545 24.8139 21.8133L24.8553 21.8377L25.1137 21.9854C25.1439 22.0028 25.1748 22.0178 25.2058 22.034L25.3904 22.1293C25.3998 22.1342 25.409 22.1377 25.4178 22.1422C25.5422 22.2049 25.6674 22.2641 25.7955 22.3213C25.8228 22.3334 25.8508 22.3446 25.8789 22.3563C25.9815 22.4009 26.0849 22.4436 26.1891 22.4844L26.3219 22.534C26.4162 22.569 26.5109 22.6026 26.6062 22.6348L26.7346 22.6764C26.8701 22.7196 27.0041 22.7735 27.1455 22.7975C34.4275 24.0262 36.1092 18.3157 36.1092 18.3157C34.5937 20.5381 31.6592 21.5993 28.5269 20.7715C28.3884 20.7346 28.251 20.694 28.1146 20.6497C28.0728 20.6368 28.032 20.6231 27.9906 20.6127C27.8939 20.5809 27.7978 20.5471 27.7023 20.5116L27.5719 20.4622C27.4674 20.4252 27.364 20.3792 27.2619 20.3348C27.2338 20.3225 27.2057 20.3116 27.1781 20.2987C27.0496 20.2424 26.9228 20.1825 26.7978 20.1188C26.7336 20.0868 26.6705 20.0532 26.6072 20.0198L26.4973 19.9624C26.4161 19.9177 26.3357 19.8715 26.2562 19.8239L26.1986 19.787C26.1003 19.7282 26.0031 19.6676 25.907 19.6053C25.8773 19.586 25.8486 19.5684 25.8191 19.5456L25.6301 19.4182C25.4965 19.3237 25.3653 19.2259 25.2365 19.125L25.1478 19.0542C23.7771 17.9518 22.6902 16.4456 22.1738 14.7374C21.6322 12.9653 21.7492 10.9772 22.6906 9.36353L21.5307 11.0204ZM26.6217 9.22329C25.7902 10.4696 25.7088 12.0172 26.2894 13.3936C26.8978 14.8543 28.1445 16.0006 29.5994 16.5438C29.6594 16.5667 29.7195 16.5868 29.784 16.6077L29.8639 16.6334C29.9494 16.6608 30.0348 16.6924 30.123 16.7096C34.1441 17.5006 35.2346 14.6081 35.5248 14.1823C34.5693 15.5834 32.9639 15.9198 30.9939 15.4329C30.8389 15.394 30.6672 15.3368 30.5139 15.2831C30.3211 15.2133 30.1322 15.1333 29.948 15.0434C29.5974 14.8715 29.265 14.6648 28.9557 14.4264C27.1891 13.0641 26.0937 10.4659 27.2441 8.34985M17.7414 35.6799L17.4691 36.6458L17.7414 35.6803V35.6799ZM25.7467 33.4686H24.4988C24.4635 33.4699 24.4295 33.4826 24.4019 33.5048C24.3744 33.527 24.3548 33.5576 24.3461 33.5918L23.4599 37.6924C23.4512 37.7266 23.4316 37.757 23.4042 37.7792C23.3767 37.8013 23.3429 37.814 23.3076 37.8153H22.4242C21.55 37.8153 21.6512 37.211 21.8334 36.3829L21.8391 36.3579L21.9449 35.793L21.9906 35.5604L22.3939 33.5918C22.3978 33.5768 22.398 33.5611 22.3947 33.546C22.3913 33.5308 22.3845 33.5167 22.3747 33.5046C22.3649 33.4926 22.3524 33.4831 22.3383 33.4767C22.3241 33.4704 22.3086 33.4675 22.2932 33.4682H21.0121C20.9768 33.4695 20.9429 33.4822 20.9154 33.5044C20.888 33.5266 20.8685 33.5572 20.8599 33.5915L20.2828 36.3286C19.9654 37.7772 20.0496 39.1588 21.7744 39.202L21.8242 39.203H24.531C24.5664 39.2017 24.6003 39.189 24.6278 39.1668C24.6553 39.1446 24.6749 39.114 24.6836 39.0797L25.8508 33.5915C25.8656 33.5237 25.8201 33.4682 25.7512 33.4682L25.7467 33.4686ZM30.7258 37.8297C30.7953 37.8297 30.8365 37.885 30.8266 37.953L30.7055 38.5456L30.7258 37.8297Z" fill="black"/>
<path id="Vector_3" d="M27.3873 37.0669C27.3863 37.0019 27.4602 36.8904 27.5295 36.8904L27.3736 36.8878C27.2998 37.5945 27.3873 37.0669 27.3873 37.0669ZM30.7258 37.8296C30.7953 37.8296 30.8365 37.8849 30.8266 37.9529L30.6855 38.6417L30.7258 37.8296ZM28.4041 39.2738H28.3457H28.4115H28.4041ZM10.0566 37.0816L10.2506 36.2222L10.0291 37.2042L10.0031 37.3275L10.057 37.081L10.0566 37.0816ZM12.3773 33.4544H11.0066C10.9712 33.4557 10.9371 33.4684 10.9093 33.4905C10.8816 33.5127 10.8618 33.5432 10.8527 33.5775L10.5928 34.7218C10.5885 34.7366 10.5878 34.7523 10.5908 34.7674C10.5938 34.7826 10.6003 34.7968 10.61 34.8088C10.6196 34.8209 10.632 34.8305 10.6461 34.8367C10.6602 34.843 10.6756 34.8458 10.691 34.8449H12.0725C12.1078 34.8435 12.1417 34.8309 12.1692 34.8087C12.1968 34.7865 12.2164 34.756 12.2252 34.7218L12.4764 33.5748C12.491 33.5074 12.4467 33.4519 12.3768 33.4519L12.3773 33.4544ZM8.09707 41.5257L9.22754 41.5347C8.89375 41.5347 8.34277 41.5285 8.09668 41.5255L8.09707 41.5257Z" fill="black"/>
<path id="Vector_4" d="M11.9801 35.2394H10.5982C10.5628 35.2406 10.5287 35.2533 10.5009 35.2754C10.4732 35.2976 10.4534 35.3281 10.4443 35.3624L10.0566 37.0812L10.0027 37.3278L9.6336 39.0825C9.61543 39.1644 9.59317 39.2454 9.56719 39.3251C9.56719 39.3251 9.30879 40.0931 8.8754 40.0845L8.44532 40.0765C8.41002 40.0774 8.37593 40.0895 8.34804 40.1112C8.32014 40.1328 8.29989 40.1628 8.29024 40.1968L8.00411 41.4013C7.99963 41.416 7.99874 41.4316 8.00153 41.4467C8.00432 41.4619 8.01069 41.4761 8.02013 41.4883C8.02956 41.5004 8.04177 41.5102 8.05573 41.5167C8.0697 41.5231 8.08502 41.5262 8.10039 41.5255L9.23125 41.5347C10.3152 41.5347 10.8863 40.9339 11.2527 39.2062L12.0834 35.3667C12.0982 35.2993 12.0531 35.2438 11.9838 35.2438L11.9801 35.2394ZM31.6063 39.2036C31.5369 39.2036 31.4955 39.1483 31.5066 39.0804L32.5459 34.2124L31.6063 39.2036Z" fill="black"/>
<path id="Vector_5" d="M31.5217 39.1421C31.5133 39.1081 31.5182 39.0249 31.5328 38.9573L32.026 36.6464L31.5062 39.0804C31.4914 39.1483 31.5365 39.2036 31.6059 39.2036H31.7322C31.6629 39.2036 31.5299 39.1759 31.5217 39.1421ZM32.9689 39.1759C32.9312 39.1907 32.8434 39.2036 32.774 39.2036H32.9002C32.9354 39.2022 32.9692 39.1894 32.9965 39.1671C33.0238 39.1448 33.0431 39.1142 33.0516 39.08L33.0768 38.9567C33.0631 39.0245 33.0029 39.1608 32.966 39.1759H32.9689ZM37.3613 34.5384L37.4185 34.7747C37.4346 34.8423 37.3906 34.8972 37.3215 34.8976M33.4463 37.1241L33.4973 36.879L33.6955 35.9505L33.4711 37.0019L33.4463 37.1237V37.1241ZM32.5629 34.1323L32.5197 34.3353L32.0264 36.6464L32.5463 34.2124L32.5629 34.1327V34.1323Z" fill="black"/>
<path id="Vector_6" d="M37.419 34.7749L37.3617 34.5386L37.277 34.1694C37.1647 33.7337 36.8354 33.4815 36.1199 33.4815L32.8268 33.4794C32.7915 33.4806 32.7575 33.4933 32.7301 33.5155C32.7027 33.5378 32.6833 33.5683 32.6748 33.6026L32.6238 33.8438L32.55 34.2081L31.5369 38.9532C31.5221 39.0212 31.5174 39.1009 31.5258 39.1378C31.5344 39.1747 31.6672 39.1995 31.7363 39.1995H32.7774C32.8467 39.1995 32.9342 39.1868 32.9723 39.1718C33.0104 39.1565 33.066 39.0241 33.083 38.9524L33.4781 36.9979L33.9008 35.0177C33.9095 34.9835 33.9291 34.9531 33.9565 34.931C33.9839 34.9089 34.0177 34.8962 34.0529 34.8948L37.3285 34.8933C37.3977 34.8933 37.4416 34.838 37.4256 34.7704L37.419 34.7749ZM41.6361 32.6362L41.384 32.6372H40.3356C40.2972 32.6396 40.2597 32.6501 40.2257 32.6681C40.1917 32.686 40.1619 32.711 40.1383 32.7413L37.8199 36.1378C37.7809 36.195 37.7361 36.1866 37.7203 36.1194L37.5496 35.371C37.5405 35.3367 37.5206 35.3063 37.4929 35.2842C37.4652 35.2621 37.4311 35.2495 37.3957 35.2481H35.9055C35.8359 35.2481 35.7947 35.3024 35.8139 35.3692L36.4783 37.7091C36.4975 37.7755 36.4986 37.8851 36.482 37.9526L36.1867 39.0851C36.1816 39.0995 36.1802 39.1151 36.1827 39.1303C36.1852 39.1454 36.1915 39.1597 36.201 39.1718C36.2104 39.1839 36.2228 39.1935 36.2369 39.1996C36.2509 39.2058 36.2663 39.2084 36.2816 39.2071H37.7582C37.7939 39.2057 37.8282 39.1932 37.8564 39.1713C37.8846 39.1495 37.9053 39.1194 37.9156 39.0853L38.2109 37.953C38.234 37.8733 38.2703 37.7979 38.318 37.7302L42.0858 32.7341C42.1276 32.6786 42.1051 32.6337 42.0356 32.6343L41.6406 32.637L41.6361 32.6362ZM29.7943 35.5663C29.7856 35.6401 29.7162 35.6956 29.6467 35.6956H27.7565C27.6912 35.6956 27.658 35.6513 27.668 35.5958L27.6693 35.5858L27.6779 35.5538C27.8625 35.0739 28.2262 34.7589 28.9168 34.7589C29.6947 34.7589 29.8465 35.1392 29.7938 35.5663H29.7943ZM29.2399 33.3853C26.8145 33.3853 26.2397 34.8575 25.9174 36.3435C25.5947 37.8581 25.6227 39.2747 28.1324 39.2747H28.5303L28.8367 39.2735L30.4338 39.264C30.4688 39.2624 30.5024 39.2495 30.5295 39.2272C30.5566 39.2049 30.5757 39.1744 30.584 39.1403L30.8266 37.9546C30.8406 37.8866 30.7953 37.8312 30.7258 37.8312H28.4693C27.5723 37.8312 27.3055 37.5927 27.4035 36.8917H31.0106C31.0396 36.8914 31.0678 36.8823 31.0916 36.8657C31.1155 36.8492 31.1337 36.8258 31.1441 36.7987C31.1483 36.7886 31.1512 36.7781 31.1529 36.7673C31.6883 34.7479 31.5348 33.3868 29.2406 33.3868L29.2399 33.3853ZM17.7754 35.5583L17.7414 35.679L17.4692 36.6446L17.1967 37.6097C17.1854 37.6437 17.164 37.6735 17.1354 37.6951C17.1068 37.7167 17.0723 37.7292 17.0365 37.7308H15.5943C14.5008 37.7308 14.2346 36.8755 14.5008 35.614C14.7666 34.3237 15.2891 33.5214 16.3652 33.4403C17.8359 33.3296 18.1299 34.364 17.7754 35.5579V35.5583ZM18.7641 37.6569C18.7641 37.6569 19.4434 36.0067 19.5984 35.0532C19.8088 33.7769 19.1703 31.9263 16.7024 31.9263C14.2483 31.9263 13.1828 33.6931 12.7766 35.6181C12.3703 37.5524 12.9027 39.2493 15.3422 39.236L19.0656 39.2224C19.1013 39.2206 19.1356 39.2078 19.1639 39.1859C19.1921 39.1639 19.2129 39.1339 19.2234 39.0997L19.5371 37.9044C19.5421 37.8899 19.5435 37.8745 19.5411 37.8593C19.5387 37.8442 19.5327 37.8299 19.5234 37.8177C19.5142 37.8054 19.5019 37.7956 19.4879 37.7893C19.4738 37.783 19.4583 37.7804 19.443 37.7817L18.8424 37.778C18.7834 37.7776 18.75 37.7397 18.7566 37.6895C18.7581 37.6799 18.7606 37.6705 18.7641 37.6614V37.6569Z" fill="black"/>
<path id="Vector_7" d="M30.9115 36.5527C30.9115 36.5746 30.9028 36.5957 30.8873 36.6112C30.8718 36.6267 30.8507 36.6354 30.8288 36.6354C30.8069 36.6354 30.7858 36.6267 30.7703 36.6112C30.7548 36.5957 30.7461 36.5746 30.7461 36.5527C30.7461 36.5307 30.7548 36.5097 30.7703 36.4942C30.7858 36.4787 30.8069 36.47 30.8288 36.47C30.8507 36.47 30.8718 36.4787 30.8873 36.4942C30.9028 36.5097 30.9115 36.5307 30.9115 36.5527Z" fill="black"/>
</g>
</g>
<defs>
<clipPath id="clip0_7_116">
<rect width="50" height="50" fill="white"/>
</clipPath>
</defs>
</svg>
