<svg width="30" height="30" viewBox="0 0 30 30" fill="none" xmlns="http://www.w3.org/2000/svg">
<g id="uiw:facebook" clip-path="url(#clip0_7_286)">
<path id="Vector" fill-rule="evenodd" clip-rule="evenodd" d="M25.1835 0L4.65601 0C1.65601 -2.96533e-06 5.72205e-06 3.17 5.72205e-06 5L0 25C0 26 0.5 30 4.65601 30H16.023V18.3825H12.114V13.8555H16.023V10.515C16.023 6.639 18.39 4.53 21.8475 4.53C23.5035 4.53 24.9255 4.653 25.341 4.7085V8.7585H22.944C21.063 8.7585 20.7 9.6525 20.7 10.9635V13.854H25.1835L24.5985 18.381H20.6985V30H25.341C26.256 30 30 29.5 30 25V5C30 3.5 29 0 25.1835 0Z" fill="#FCA311"/>
</g>
<defs>
<clipPath id="clip0_7_286">
<rect width="30" height="30" fill="white"/>
</clipPath>
</defs>
</svg>
