<svg width="69" height="62" viewBox="0 0 69 62" fill="none" xmlns="http://www.w3.org/2000/svg">
<g id="wc-logo-wht 1" filter="url(#filter0_d_3_50)">
<g id="Group">
<path id="Vector" d="M34.4297 27.5457C34.4297 25.3166 34.7588 23.1308 35.4168 20.9882C36.0749 18.8457 37.0435 16.8893 38.3153 15.1233C39.5907 13.3573 41.1508 11.9506 42.9956 10.9031C44.8404 9.85568 46.9366 9.33627 49.2805 9.33627C52.0643 9.33627 54.4488 10.0808 56.4415 11.574C58.4342 13.0673 59.913 14.9761 60.8779 17.3091C60.8779 17.3091 56.3602 16.9066 55.4064 15.9976C54.4525 15.0887 53.4285 14.4481 52.3305 14.0672C51.2325 13.6906 50.1567 13.5002 49.0993 13.5002C47.3691 13.5002 45.8386 13.9113 44.5077 14.7337C43.1731 15.5561 42.0529 16.6555 41.1471 18.0276C40.2377 19.3997 39.5574 20.9363 39.1027 22.633C38.648 24.3297 38.4225 26.0351 38.4225 27.7534C38.4225 29.6406 38.6924 31.4585 39.2358 33.2072C39.7756 34.9558 40.5334 36.501 41.4984 37.8385C42.4633 39.176 43.6056 40.2407 44.9254 41.0285C46.2453 41.8163 47.6797 42.2102 49.2324 42.2102C50.3156 42.2102 51.4284 41.9894 52.5708 41.5393C53.7131 41.0934 54.7816 40.4009 55.7797 39.4573C56.7742 38.5137 61.4472 37.8905 61.4472 37.8905C60.8039 39.7084 59.8057 41.2536 58.4601 42.5218C57.1107 43.79 55.6097 44.7509 53.9571 45.4045C52.3009 46.0581 50.6668 46.3827 49.0587 46.3827C46.9218 46.3827 44.9587 45.8416 43.1694 44.7639C41.3837 43.6818 39.8384 42.2448 38.5334 40.4442C37.2284 38.6436 36.2191 36.6222 35.5019 34.3758C34.7884 32.1121 34.4297 29.8397 34.4297 27.5457Z" fill="white"/>
<g id="Group_2">
<path id="Vector_2" d="M44.5151 14.7337C44.8774 14.5086 45.2545 14.3182 45.6463 14.158L46.7813 9.54834C45.4319 9.79073 44.1823 10.2365 43.0289 10.8858L41.3246 17.7809C42.2008 16.5257 43.2618 15.5085 44.5151 14.7337Z" fill="white"/>
<path id="Vector_3" d="M46.87 9.1891L47.9976 4.60537C48.2157 3.71373 47.2878 3.05149 46.7148 3.69208L44.4855 6.16791C44.223 6.45791 44.0308 6.82582 43.931 7.23268L43.1361 10.4487C44.2859 9.83402 45.5354 9.41417 46.87 9.1891Z" fill="white"/>
<path id="Vector_4" d="M44.6519 15.041C43.3616 15.8375 42.2636 16.9109 41.3874 18.2397C41.2876 18.3869 41.1952 18.5384 41.1028 18.6899L35.317 42.089L25.8121 13.7901H25.1171L15.5013 42.089L8.84672 14.6039C8.72102 14.0758 8.45115 13.6127 8.08515 13.2751L6.07399 11.4269C5.48618 10.8858 4.65066 11.5437 4.85399 12.3878L14.7175 53.0613H15.3423L25.4905 23.3472L35.4427 53.0613H36.0638L45.5428 14.5736C45.236 14.7078 44.9365 14.8636 44.6519 15.041Z" fill="white"/>
</g>
<g id="Group_3">
<path id="Vector_5" d="M59.6062 31.2767C61.0477 31.2767 62.2162 29.5288 62.2162 27.3725C62.2162 25.2163 61.0477 23.4684 59.6062 23.4684C58.1647 23.4684 56.9961 25.2163 56.9961 27.3725C56.9961 29.5288 58.1647 31.2767 59.6062 31.2767Z" fill="white"/>
<path id="Vector_6" d="M59.6061 20.4082C57.0367 20.4082 54.9517 23.5246 54.9517 27.3682C54.9517 31.2118 57.0367 34.3282 59.6061 34.3282C62.1755 34.3282 64.2606 31.2118 64.2606 27.3682C64.2606 23.5246 62.1755 20.4082 59.6061 20.4082ZM59.6061 32.0125C57.8907 32.0125 56.5007 29.9349 56.5007 27.3682C56.5007 24.8015 57.8907 22.7239 59.6061 22.7239C61.3215 22.7239 62.7116 24.8015 62.7116 27.3682C62.7116 29.9349 61.3215 32.0125 59.6061 32.0125Z" fill="white"/>
</g>
</g>
</g>
<defs>
<filter id="filter0_d_3_50" x="0" y="0" width="69" height="66" filterUnits="userSpaceOnUse" color-interpolation-filters="sRGB">
<feFlood flood-opacity="0" result="BackgroundImageFix"/>
<feColorMatrix in="SourceAlpha" type="matrix" values="0 0 0 0 0 0 0 0 0 0 0 0 0 0 0 0 0 0 127 0" result="hardAlpha"/>
<feOffset dy="4"/>
<feGaussianBlur stdDeviation="2"/>
<feComposite in2="hardAlpha" operator="out"/>
<feColorMatrix type="matrix" values="0 0 0 0 0 0 0 0 0 0 0 0 0 0 0 0 0 0 0.25 0"/>
<feBlend mode="normal" in2="BackgroundImageFix" result="effect1_dropShadow_3_50"/>
<feBlend mode="normal" in="SourceGraphic" in2="effect1_dropShadow_3_50" result="shape"/>
</filter>
</defs>
</svg>
