<svg width="30" height="30" viewBox="0 0 30 30" fill="none" xmlns="http://www.w3.org/2000/svg">
<g id="wpf:behance" clip-path="url(#clip0_7_280)">
<path id="Vector" d="M22.5 14.3077C22.7308 14.6538 22.9615 15 23.0769 15.5769H19.3846C19.3846 15.4615 19.3846 15.2308 19.5 15C19.6154 14.7692 19.6154 14.6538 19.8462 14.4231C19.9615 14.1923 20.1923 14.0769 20.4231 13.9615C20.6538 13.8462 21 13.7308 21.3462 13.7308C21.8077 13.8462 22.2692 13.9615 22.5 14.3077ZM11.8846 13.5C12.1154 13.2692 12.3462 12.9231 12.3462 12.4615C12.3462 12.2308 12.3462 12 12.2308 11.7692C12.1154 11.6538 12 11.4231 11.8846 11.4231C11.7692 11.3077 11.5385 11.3077 11.3077 11.1923H8.30769V13.8462H10.8462C11.1923 13.8462 11.5385 13.7308 11.8846 13.5ZM10.9615 15.4615H8.30769V18.5769H10.9615C11.1923 18.5769 11.4231 18.5769 11.6538 18.4615C11.8846 18.4615 12.1154 18.3462 12.2308 18.2308C12.3462 18.1154 12.5769 18 12.6923 17.7692C12.8077 17.5385 12.8077 17.3077 12.8077 17.0769C12.8077 16.5 12.6923 16.0385 12.3462 15.8077C12 15.5769 11.5385 15.4615 10.9615 15.4615ZM30 5.65385V24.3462C30 27.4615 27.4615 30 24.3462 30H5.65385C2.53846 30 0 27.4615 0 24.3462V5.65385C0 2.53846 2.53846 0 5.65385 0H24.3462C27.4615 0 30 2.53846 30 5.65385ZM18.9231 11.0769H23.5385V9.92308H18.9231V11.0769ZM15.2308 17.3077C15.2308 16.6154 15.1154 16.0385 14.7692 15.4615C14.4231 15 13.9615 14.6538 13.2692 14.4231C13.7308 14.1923 14.1923 13.8462 14.4231 13.5C14.6538 13.1538 14.7692 12.6923 14.7692 12.1154C14.7692 11.5385 14.6538 11.1923 14.5385 10.7308C14.3077 10.3846 14.0769 10.0385 13.8462 9.92308C13.5 9.69231 13.1538 9.57692 12.6923 9.46154C12.1154 9.23077 11.6538 9.23077 11.0769 9.23077H5.76923V20.5385H11.3077C11.7692 20.5385 12.3462 20.4231 12.8077 20.3077C13.2692 20.1923 13.7308 19.9615 14.0769 19.7308C14.4231 19.5 14.7692 19.1538 15 18.6923C15.1154 18.3462 15.2308 17.8846 15.2308 17.3077ZM19.3846 16.9615H25.2692C25.2692 16.2692 25.2692 15.6923 25.1538 15.1154C25.0385 14.5385 24.8077 13.9615 24.4615 13.6154C24.1154 13.1538 23.6538 12.8077 23.1923 12.5769C22.6154 12.3462 22.0385 12.1154 21.3462 12.1154C20.7692 12.1154 20.1923 12.2308 19.6154 12.4615C19.1538 12.6923 18.6923 13.0385 18.2308 13.3846C17.8846 13.7308 17.5385 14.1923 17.4231 14.7692C17.1923 15.3462 17.0769 15.9231 17.0769 16.5C17.0769 17.0769 17.1923 17.7692 17.4231 18.2308C17.6538 18.8077 17.8846 19.2692 18.2308 19.6154C18.5769 19.9615 19.0385 20.3077 19.5 20.5385C20.0769 20.7692 20.6538 20.8846 21.2308 20.8846C22.1538 20.8846 22.9615 20.6538 23.6538 20.1923C24.3462 19.7308 24.8077 19.0385 25.1538 18.1154H23.1923C23.0769 18.3462 22.9615 18.5769 22.6154 18.8077C22.2692 19.0385 21.9231 19.1538 21.4615 19.1538C20.8846 19.1538 20.3077 19.0385 19.9615 18.6923C19.6154 18.2308 19.3846 17.6538 19.3846 16.9615Z" fill="#FCA311"/>
</g>
<defs>
<clipPath id="clip0_7_280">
<rect width="30" height="30" fill="white"/>
</clipPath>
</defs>
</svg>
